HIERARCHY
ROOT hips
{
	OFFSET 0.000000 104.274902 0.000000
	CHANNELS 6 Xposition Yposition Zposition Xrotation Yrotation Zrotation
	JOINT spine
	{
		OFFSET 0.000000 10.181549 0.131524
		CHANNELS 6 Xposition Yposition Zposition Xrotation Yrotation Zrotation
		JOINT chest
		{
			OFFSET 0.000000 9.893990 -1.470706
			CHANNELS 3 Xrotation Yrotation Zrotation
			JOINT upperChest
			{
				OFFSET 0.000000 9.220787 -1.370637
				CHANNELS 3 Xrotation Yrotation Zrotation
				JOINT neck
				{
					OFFSET 0.000000 16.740372 -2.049022
					CHANNELS 6 Xposition Yposition Zposition Xrotation Yrotation Zrotation
					JOINT head
					{
						OFFSET 0.000000 9.617859 1.684976
						CHANNELS 6 Xposition Yposition Zposition Xrotation Yrotation Zrotation
						JOINT headEnd
						{
							OFFSET 0.000000 22.037384 7.501072
							CHANNELS 6 Xposition Yposition Zposition Xrotation Yrotation Zrotation
							End Site
							{
								OFFSET 0.000000 23.106567 -2.828246
							}
						}
					}
				}
				JOINT rightShoulder
				{
					OFFSET -4.570000 11.014877 -2.160840
					CHANNELS 6 Xposition Yposition Zposition Xrotation Yrotation Zrotation
					JOINT rightUpperArm
					{
						OFFSET -10.592867 -0.524796 -2.232105
						CHANNELS 3 Xrotation Yrotation Zrotation
						JOINT rightLowerArm
						{
							OFFSET -27.841497 0.000000 -0.000002
							CHANNELS 3 Xrotation Yrotation Zrotation
							JOINT rightHand
							{
								OFFSET -28.328812 0.000000 -0.000001
								CHANNELS 3 Xrotation Yrotation Zrotation
								JOINT rightThumbProximal
								{
									OFFSET -2.464798 -1.573990 2.681911
									CHANNELS 6 Xposition Yposition Zposition Xrotation Yrotation Zrotation
									JOINT rightThumbIntermediate
									{
										OFFSET -3.244781 -1.873383 1.873376
										CHANNELS 3 Xrotation Yrotation Zrotation
										JOINT rightThumbDistal
										{
											OFFSET -2.646263 -1.527817 1.527818
											CHANNELS 6 Xposition Yposition Zposition Xrotation Yrotation Zrotation
											JOINT rightHandThumb4
											{
												OFFSET -1.994591 -1.151581 1.151575
												CHANNELS 6 Xposition Yposition Zposition Xrotation Yrotation Zrotation
												End Site
												{
													OFFSET -1.860176 -1.142715 1.365483
												}
											}
										}
									}
								}
								JOINT rightIndexProximal
								{
									OFFSET -9.108299 -0.517883 2.259803
									CHANNELS 6 Xposition Yposition Zposition Xrotation Yrotation Zrotation
									JOINT rightIndexIntermediate
									{
										OFFSET -3.699997 0.000000 0.000000
										CHANNELS 3 Xrotation Yrotation Zrotation
										JOINT rightIndexDistal
										{
											OFFSET -2.850006 0.000000 0.000000
											CHANNELS 3 Xrotation Yrotation Zrotation
											JOINT rightHandIndex4
											{
												OFFSET -2.772194 0.000000 0.000000
												CHANNELS 3 Xrotation Yrotation Zrotation
												End Site
												{
													OFFSET -2.772202 0.000000 -0.000484
												}
											}
										}
									}
								}
								JOINT rightMiddleProximal
								{
									OFFSET -9.532501 0.000000 -0.000000
									CHANNELS 6 Xposition Yposition Zposition Xrotation Yrotation Zrotation
									JOINT rightMiddleIntermediate
									{
										OFFSET -3.699997 0.000000 0.000000
										CHANNELS 3 Xrotation Yrotation Zrotation
										JOINT rightMiddleDistal
										{
											OFFSET -2.949997 0.000000 0.000000
											CHANNELS 3 Xrotation Yrotation Zrotation
											JOINT rightHandMiddle4
											{
												OFFSET -2.946594 0.000000 0.000000
												CHANNELS 3 Xrotation Yrotation Zrotation
												End Site
												{
													OFFSET -2.946602 0.000000 -0.000982
												}
											}
										}
									}
								}
								JOINT rightRingProximal
								{
									OFFSET -9.103600 -0.043106 -1.865100
									CHANNELS 6 Xposition Yposition Zposition Xrotation Yrotation Zrotation
									JOINT rightRingIntermediate
									{
										OFFSET -3.379303 0.000000 0.000000
										CHANNELS 3 Xrotation Yrotation Zrotation
										JOINT rightRingDistal
										{
											OFFSET -2.889694 0.000000 0.000000
											CHANNELS 3 Xrotation Yrotation Zrotation
											JOINT rightHandRing4
											{
												OFFSET -2.638802 0.000000 0.000000
												CHANNELS 3 Xrotation Yrotation Zrotation
												End Site
												{
													OFFSET -2.638802 0.000000 0.004218
												}
											}
										}
									}
								}
								JOINT rightLittleProximal
								{
									OFFSET -8.076698 -0.486725 -3.806299
									CHANNELS 6 Xposition Yposition Zposition Xrotation Yrotation Zrotation
									JOINT rightLittleIntermediate
									{
										OFFSET -3.600006 0.000000 0.000000
										CHANNELS 3 Xrotation Yrotation Zrotation
										JOINT rightLittleDistal
										{
											OFFSET -2.099998 0.000000 0.000000
											CHANNELS 3 Xrotation Yrotation Zrotation
											JOINT rightHandPinky4
											{
												OFFSET -2.115791 0.000000 0.000000
												CHANNELS 3 Xrotation Yrotation Zrotation
												End Site
												{
													OFFSET -2.115799 0.000000 0.000174
												}
											}
										}
									}
								}
							}
						}
					}
				}
				JOINT leftShoulder
				{
					OFFSET 4.570400 11.014679 -2.160816
					CHANNELS 6 Xposition Yposition Zposition Xrotation Yrotation Zrotation
					JOINT leftUpperArm
					{
						OFFSET 10.592373 -0.524597 -2.232116
						CHANNELS 3 Xrotation Yrotation Zrotation
						JOINT leftLowerArm
						{
							OFFSET 27.841488 0.000000 0.000001
							CHANNELS 3 Xrotation Yrotation Zrotation
							JOINT leftHand
							{
								OFFSET 28.328808 0.000000 -0.000000
								CHANNELS 3 Xrotation Yrotation Zrotation
								JOINT leftThumbProximal
								{
									OFFSET 2.466103 -1.576202 2.681698
									CHANNELS 6 Xposition Yposition Zposition Xrotation Yrotation Zrotation
									JOINT leftThumbIntermediate
									{
										OFFSET 3.243317 -1.872528 1.872530
										CHANNELS 3 Xrotation Yrotation Zrotation
										JOINT leftThumbDistal
										{
											OFFSET 2.647881 -1.528763 1.528754
											CHANNELS 6 Xposition Yposition Zposition Xrotation Yrotation Zrotation
											JOINT leftHandThumb4
											{
												OFFSET 1.998924 -1.154083 1.154080
												CHANNELS 6 Xposition Yposition Zposition Xrotation Yrotation Zrotation
												End Site
												{
													OFFSET 1.884041 -1.149155 1.337651
												}
											}
										}
									}
								}
								JOINT leftIndexProximal
								{
									OFFSET 9.109299 -0.518005 2.259900
									CHANNELS 6 Xposition Yposition Zposition Xrotation Yrotation Zrotation
									JOINT leftIndexIntermediate
									{
										OFFSET 3.699997 0.000000 0.000000
										CHANNELS 3 Xrotation Yrotation Zrotation
										JOINT leftIndexDistal
										{
											OFFSET 2.850006 0.000000 0.000000
											CHANNELS 3 Xrotation Yrotation Zrotation
											JOINT leftHandIndex4
											{
												OFFSET 2.774895 0.000000 0.000000
												CHANNELS 3 Xrotation Yrotation Zrotation
												End Site
												{
													OFFSET 2.774902 0.000000 -0.000072
												}
											}
										}
									}
								}
								JOINT leftMiddleProximal
								{
									OFFSET 9.533401 0.000000 0.000000
									CHANNELS 6 Xposition Yposition Zposition Xrotation Yrotation Zrotation
									JOINT leftMiddleIntermediate
									{
										OFFSET 3.699997 0.000000 0.000000
										CHANNELS 3 Xrotation Yrotation Zrotation
										JOINT leftMiddleDistal
										{
											OFFSET 2.949997 0.000000 0.000000
											CHANNELS 3 Xrotation Yrotation Zrotation
											JOINT leftHandMiddle4
											{
												OFFSET 2.952896 0.000000 0.000000
												CHANNELS 3 Xrotation Yrotation Zrotation
												End Site
												{
													OFFSET 2.952904 0.000000 0.000165
												}
											}
										}
									}
								}
								JOINT leftRingProximal
								{
									OFFSET 9.104500 -0.042999 -1.865101
									CHANNELS 6 Xposition Yposition Zposition Xrotation Yrotation Zrotation
									JOINT leftRingIntermediate
									{
										OFFSET 3.149994 0.000000 0.000000
										CHANNELS 3 Xrotation Yrotation Zrotation
										JOINT leftRingDistal
										{
											OFFSET 2.950005 0.000000 0.000000
											CHANNELS 3 Xrotation Yrotation Zrotation
											JOINT leftHandRing4
											{
												OFFSET 2.644302 0.000000 0.000000
												CHANNELS 3 Xrotation Yrotation Zrotation
												End Site
												{
													OFFSET 2.644302 0.000000 0.000083
												}
											}
										}
									}
								}
								JOINT leftLittleProximal
								{
									OFFSET 8.077805 -0.486893 -3.806302
									CHANNELS 6 Xposition Yposition Zposition Xrotation Yrotation Zrotation
									JOINT leftLittleIntermediate
									{
										OFFSET 3.600006 0.000000 0.000000
										CHANNELS 3 Xrotation Yrotation Zrotation
										JOINT leftLittleDistal
										{
											OFFSET 2.099998 0.000000 0.000000
											CHANNELS 3 Xrotation Yrotation Zrotation
											JOINT leftHandPinky4
											{
												OFFSET 2.125496 0.000000 0.000000
												CHANNELS 3 Xrotation Yrotation Zrotation
												End Site
												{
													OFFSET 2.125504 0.000000 -0.001254
												}
											}
										}
									}
								}
							}
						}
					}
				}
			}
		}
	}
	JOINT rightUpperLeg
	{
		OFFSET -8.207800 -6.751701 -1.599544
		CHANNELS 6 Xposition Yposition Zposition Xrotation Yrotation Zrotation
		JOINT rightLowerLeg
		{
			OFFSET 0.000004 -44.370152 0.345934
			CHANNELS 3 Xrotation Yrotation Zrotation
			JOINT rightFoot
			{
				OFFSET 0.000004 -44.423664 -3.043535
				CHANNELS 3 Xrotation Yrotation Zrotation
				JOINT rightToes
				{
					OFFSET 0.000001 -8.728691 10.710592
					CHANNELS 3 Xrotation Yrotation Zrotation
					JOINT rightToesEnd
					{
						OFFSET 0.000000 -0.000665 9.278101
						CHANNELS 3 Xrotation Yrotation Zrotation
						End Site
						{
							OFFSET 0.000000 -0.000665 9.278103
						}
					}
				}
			}
		}
	}
	JOINT leftUpperLeg
	{
		OFFSET 8.207800 -6.751701 -1.599544
		CHANNELS 6 Xposition Yposition Zposition Xrotation Yrotation Zrotation
		JOINT leftLowerLeg
		{
			OFFSET 0.000004 -44.370037 0.346940
			CHANNELS 3 Xrotation Yrotation Zrotation
			JOINT leftFoot
			{
				OFFSET 0.000004 -44.423611 -3.044388
				CHANNELS 3 Xrotation Yrotation Zrotation
				JOINT leftToes
				{
					OFFSET 0.000001 -8.728690 10.710592
					CHANNELS 3 Xrotation Yrotation Zrotation
					JOINT leftToesEnd
					{
						OFFSET 0.000000 -0.000680 9.278101
						CHANNELS 3 Xrotation Yrotation Zrotation
						End Site
						{
							OFFSET 0.000000 -0.000680 9.278101
						}
					}
				}
			}
		}
	}
}
MOTION
Frames: 4
Frame Time: 0.033333
-1.958175 99.096268 17.608032 -8.117206 -25.153606 -9.376657 -0.000001 10.181564 0.131529 21.050105 -5.827999 -5.485446 -1.160144 -0.245303 -4.468867 -1.184992 -0.435190 -4.449873 -0.000005 16.740362 -2.049026 -8.807428 -7.279051 0.813493 0.000005 9.617847 1.684982 -33.849615 -40.372032 11.136187 -0.000001 22.037399 7.501070 0.000005 0.000000 0.000001 -4.570004 11.014894 -2.160838 -1.478320 -4.391258 -19.867166 -51.780477 10.008867 -8.380649 -0.000129 67.322320 0.000156 32.900960 -13.871066 -18.596163 -2.464764 -1.573994 2.681928 3.434204 -14.899511 -10.331231 3.677875 -5.428917 0.349710 -2.646254 -1.527792 1.527820 -1.757532 0.318696 -2.536725 -1.994598 -1.151582 1.151587 0.000001 0.000000 0.000003 -9.108255 -0.517875 2.259824 -0.376074 3.881884 5.316871 0.023583 -0.573400 4.710548 0.006099 -0.291691 2.394300 -0.000000 0.000000 -0.000000 -9.532459 0.000015 0.000015 0.072473 -2.390067 1.790938 0.046462 -0.804101 6.613363 1.349373 -0.262844 2.679419 0.000000 0.000001 0.000000 -9.103570 -0.043119 -1.865090 0.655254 -9.884850 3.342971 0.024928 -0.589383 4.842261 1.117595 -0.070250 0.688448 -0.000000 0.000000 0.000000 -8.076658 -0.486723 -3.806276 3.695488 -19.726520 10.029946 0.273381 -1.934295 16.088751 0.002247 0.177000 -1.452579 0.000000 0.000002 0.000001 4.570403 11.014679 -2.160816 1.445779 6.376487 -19.653007 21.778372 30.401698 -35.191611 -0.000003 -42.138825 0.000014 -16.701172 33.811513 18.236665 2.466096 -1.576213 2.681705 6.066659 11.277367 -7.664611 3.255859 -0.441771 -1.134946 2.647873 -1.528749 1.528752 0.613015 -2.387132 4.079386 1.998924 -1.154092 1.154084 0.000003 -0.000002 -0.000000 9.109299 -0.518025 2.259902 0.937163 -4.185580 16.188124 -0.000002 0.000008 -0.000012 0.072731 1.000296 -8.318819 -0.000001 -0.000003 0.000001 9.533398 -0.000002 0.000001 -0.125705 1.239627 4.789148 -0.000005 0.003712 -0.030733 0.057543 0.890136 -7.397009 -0.000000 -0.000000 0.000002 9.104506 -0.043013 -1.865096 0.740962 6.481608 -6.689658 0.013275 0.428340 -3.551667 0.066215 0.954664 -7.936686 -0.000002 -0.000000 0.000002 8.077806 -0.486895 -3.806299 5.994259 16.656695 -20.679923 -0.018109 -4.056669 -0.491035 0.049776 0.828257 -6.880097 0.000000 0.000000 0.000001 -8.207803 -6.751703 -1.599539 -20.349271 -2.143258 -7.406730 15.847345 -10.154270 1.234126 3.012095 -18.850866 7.548837 7.706594 0.000014 0.000001 -0.000000 -0.000003 0.000000 8.207799 -6.751695 -1.599543 -0.190733 3.685972 6.634736 32.019216 4.705280 -10.329240 -26.690060 13.417569 7.348567 -0.792248 0.000002 -0.000001 0.000000 -0.000000 0.000000 
-0.502958 98.006454 16.503391 -11.150960 -34.066108 -10.704910 -0.000000 10.181554 0.131523 20.528140 -6.156022 -6.573224 -0.911680 -0.271061 -4.606950 -0.937670 -0.460971 -4.588220 -0.000004 16.740377 -2.049022 -8.211451 -7.553746 0.136056 -0.000004 9.617889 1.684989 -31.173724 -42.357090 11.820584 0.000000 22.037399 7.501083 -0.000001 -0.000000 0.000000 -4.570003 11.014897 -2.160835 -0.802087 -2.931898 -14.907813 -66.045484 7.775885 -1.348717 -0.000148 74.154688 0.000215 26.919225 -6.507286 -26.834029 -2.464805 -1.574000 2.681911 3.056897 -15.815918 -12.000624 2.900811 -2.632622 0.764187 -2.646249 -1.527803 1.527819 -2.588923 2.448880 -2.472673 -1.994594 -1.151586 1.151570 0.000001 -0.000006 -0.000002 -9.108274 -0.517883 2.259820 0.349512 3.413608 -6.612476 0.017780 -0.497724 4.087811 0.002526 -0.188558 1.547443 -0.000002 0.000001 -0.000001 -9.532485 0.000004 0.000014 -0.390813 -2.122959 -8.572828 0.017569 -0.495154 4.066552 0.932312 -0.196422 1.865065 -0.000004 0.000001 0.000002 -9.103602 -0.043092 -1.865103 -1.037591 -8.969184 -6.951434 0.000669 -0.098036 0.804415 0.474114 -0.003279 0.030437 -0.000001 -0.000000 0.000000 -8.076682 -0.486718 -3.806285 -1.004021 -18.171411 -4.328005 0.103835 -1.199600 9.894020 0.000850 0.109587 -0.899260 0.000003 0.000000 0.000000 4.570404 11.014690 -2.160811 1.546891 4.471300 -23.477259 27.662521 16.700969 -29.406929 -0.000002 -42.179697 -0.000022 -26.087861 34.662462 21.911334 2.466101 -1.576226 2.681697 1.250502 12.840719 1.898631 2.537915 -0.367917 -1.094403 2.647885 -1.528758 1.528744 -1.006415 -3.186154 3.807216 1.998913 -1.154083 1.154078 -0.000001 0.000004 0.000001 9.109297 -0.518022 2.259896 1.972909 -5.713276 25.149416 -0.000003 0.000003 -0.000006 0.069826 0.980183 -8.150260 -0.000004 -0.000005 -0.000006 9.533398 -0.000002 -0.000004 -0.331594 0.906908 11.764615 0.000001 -0.000080 -0.000089 0.056382 0.881279 -7.322908 -0.000003 0.000000 0.000002 9.104491 -0.042999 -1.865105 0.052439 8.079677 0.077432 0.000453 0.078348 -0.649256 0.067723 0.965340 -8.026070 0.000000 -0.000002 -0.000001 8.077804 -0.486908 -3.806296 4.798804 20.747357 -12.627794 -0.018121 -4.056661 -0.491030 0.055469 0.874130 -7.263163 0.000000 0.000003 -0.000004 -8.207801 -6.751704 -1.599545 -21.826621 3.108727 -9.315798 27.706278 -10.142760 4.585445 -3.089064 -18.546598 5.037230 7.692001 -0.000023 0.000003 -0.000000 0.000001 -0.000000 8.207800 -6.751701 -1.599548 -0.825603 9.248867 4.724549 34.109975 -2.552235 -10.395989 -30.405011 22.876023 12.748928 -1.028082 0.000001 0.000001 0.000000 -0.000000 0.000000 
0.609697 97.135422 15.285996 -14.772016 -41.562271 -12.613744 0.000000 10.181550 0.131531 20.471259 -6.381047 -8.202430 -1.013640 -0.281718 -4.192717 -1.035504 -0.459909 -4.173222 0.000003 16.740383 -2.049023 -7.278287 -7.940203 -1.191275 -0.000003 9.617877 1.684978 -28.112075 -45.334360 11.695030 0.000002 22.037369 7.501080 0.000000 -0.000001 0.000000 -4.570002 11.014872 -2.160842 -0.468838 -2.309216 -11.124963 -75.514585 3.780133 6.510479 -0.000341 79.412055 0.000376 20.352775 -1.780400 -28.880707 -2.464765 -1.574014 2.681909 2.009469 -16.292255 -14.231778 2.277546 -0.457620 1.178549 -2.646250 -1.527784 1.527818 -3.337275 4.143348 -2.487699 -1.994594 -1.151573 1.151559 -0.000002 -0.000003 0.000001 -9.108273 -0.517889 2.259807 0.678686 3.338807 -16.082249 0.010137 -0.376234 3.088703 0.000138 -0.043626 0.358017 0.000003 0.000002 -0.000001 -9.532475 -0.000009 -0.000006 -0.763491 -1.595321 -16.585467 0.002341 -0.180720 1.483137 0.453221 -0.063230 0.557086 0.000001 -0.000000 -0.000002 -9.103585 -0.043125 -1.865094 -2.169981 -7.860884 -14.640514 -0.000002 0.000007 0.000019 -0.150581 0.072512 -0.581401 0.000000 -0.000003 0.000003 -8.076678 -0.486748 -3.806294 -4.002928 -16.069198 -14.670842 0.043576 -0.778896 6.405044 0.000141 0.043302 -0.355326 -0.000002 -0.000001 0.000001 4.570409 11.014675 -2.160817 1.350170 2.938539 -23.272881 30.016953 4.953952 -22.001955 0.000010 -40.387820 -0.000005 -27.370650 35.801396 20.149123 2.466099 -1.576202 2.681701 -3.079284 11.154244 9.293659 1.885659 -0.299963 -1.061684 2.647892 -1.528739 1.528747 -2.344009 -3.671209 3.543432 1.998928 -1.154080 1.154076 0.000007 0.000000 0.000005 9.109303 -0.518034 2.259902 2.982312 -6.809665 31.278807 0.000002 0.000003 -0.000006 0.064238 0.940395 -7.817274 0.000001 0.000002 -0.000002 9.533401 -0.000001 0.000002 -0.488841 0.624541 16.809411 0.000006 -0.000056 0.000092 0.055378 0.873466 -7.257560 -0.000000 0.000004 0.000002 9.104496 -0.042997 -1.865098 -0.803141 9.259808 5.412261 -0.000002 -0.000015 -0.000058 0.069585 0.978496 -8.136169 0.000002 0.000001 -0.000001 8.077810 -0.486883 -3.806293 2.827942 23.923644 -5.626822 -0.018125 -4.056649 -0.491042 0.061187 0.917818 -7.628586 0.000000 0.000001 -0.000001 -8.207800 -6.751718 -1.599539 -22.300660 5.117413 -11.454865 37.430611 -10.126864 5.632030 -7.231448 -14.668238 5.673011 7.653317 0.000044 0.000003 0.000000 -0.000002 -0.000000 8.207800 -6.751698 -1.599541 -0.966780 13.158517 3.184312 36.394059 -3.489323 -10.419777 -32.575399 26.779905 14.656744 -1.086233 0.000002 0.000002 -0.000000 -0.000000 0.000000 
1.522369 96.761681 14.085374 -17.944905 -47.666504 -15.209397 0.000002 10.181560 0.131528 20.002397 -6.613743 -9.318200 -1.266938 -0.354237 -3.248472 -1.281924 -0.500104 -3.224967 0.000002 16.740362 -2.049017 -6.547691 -8.290141 -2.335864 0.000001 9.617856 1.684981 -24.898729 -47.535490 10.205201 0.000005 22.037369 7.501067 0.000001 0.000001 -0.000001 -4.569998 11.014867 -2.160839 -0.186888 -1.588411 -7.812428 -79.522363 -1.215710 12.065205 -0.000510 84.053476 0.000552 14.457600 -0.991681 -28.390970 -2.464795 -1.574000 2.681903 0.408075 -16.206577 -16.816610 2.033002 0.467364 1.358707 -2.646259 -1.527807 1.527804 -3.962211 5.313101 -2.586854 -1.994584 -1.151565 1.151576 0.000003 -0.000007 0.000003 -9.108294 -0.517877 2.259799 0.980826 3.744695 -22.627264 0.003184 -0.210827 1.730238 0.001266 0.133015 -1.091543 0.000000 -0.000002 0.000004 -9.532494 0.000009 -0.000007 -0.885905 -0.898642 -21.866308 -0.000002 0.000006 0.000029 -0.006637 0.107388 -0.878577 -0.000001 -0.000002 0.000000 -9.103591 -0.043119 -1.865104 -2.709327 -6.826228 -19.411058 0.000005 -0.000004 0.000075 -0.703438 0.147296 -1.095714 -0.000003 -0.000000 -0.000000 -8.076691 -0.486723 -3.806300 -5.435166 -14.270757 -20.730480 0.020336 -0.532555 4.374245 0.000033 -0.022517 0.184790 -0.000003 -0.000001 -0.000002 4.570405 11.014690 -2.160814 1.190688 2.073338 -22.115685 20.171451 0.099888 -16.713586 -0.000003 -38.418803 0.000004 -20.748236 34.761018 16.127385 2.466110 -1.576209 2.681705 -5.897997 6.807796 14.034777 1.335748 -0.240881 -1.039705 2.647889 -1.528754 1.528756 -3.311312 -3.800876 3.303063 1.998913 -1.154085 1.154074 -0.000000 0.000001 0.000005 9.109296 -0.518014 2.259903 3.447803 -7.414019 32.304957 0.000004 0.001548 -0.012918 0.056464 0.881989 -7.328879 0.000001 0.000000 -0.000001 9.533404 -0.000007 0.000005 -0.581767 0.624075 18.621520 -0.000005 -0.000054 -0.000033 0.054941 0.869940 -7.228245 -0.000001 0.000000 0.000004 9.104505 -0.042999 -1.865098 -1.460859 10.106217 8.577375 0.000008 0.000004 -0.000005 0.071924 0.994739 -8.272244 -0.000002 -0.000002 -0.000000 8.077816 -0.486917 -3.806296 0.736011 26.032201 -0.088295 -0.018109 -4.056682 -0.491047 0.076261 1.024184 -8.518756 0.000003 -0.000002 -0.000001 -8.207804 -6.751707 -1.599546 -21.839970 3.929589 -13.172992 42.933647 -10.083743 4.055482 -9.155507 -11.029222 6.994473 7.262211 0.000012 -0.000001 -0.000000 0.000001 -0.000000 8.207802 -6.751700 -1.599548 -1.472047 15.184607 2.587497 38.205452 0.250290 -10.441217 -32.522875 27.322020 13.422208 -0.569620 -0.000001 -0.000001 0.000000 0.000000 0.000000 
